<svg width="523" height="335" viewBox="0 0 523 335" fill="none" xmlns="http://www.w3.org/2000/svg">
<path d="M516.876 179C516.876 190.522 510.794 202.182 498.306 213.474C485.819 224.767 467.413 235.212 444.159 244.107C397.691 261.88 333.091 273 261.438 273C189.784 273 125.185 261.88 78.7169 244.107C55.4627 235.212 37.0568 224.767 24.5695 213.474C12.0821 202.182 6 190.522 6 179C6 167.478 12.0821 155.818 24.5695 144.526C37.0568 133.233 55.4627 122.788 78.7169 113.893C125.185 96.1195 189.784 85 261.438 85C333.091 85 397.691 96.1195 444.159 113.893C467.413 122.788 485.819 133.233 498.306 144.526C510.794 155.818 516.876 167.478 516.876 179Z" stroke="#32A4A0" stroke-width="12"/>
<path d="M516.876 167C516.876 178.522 510.794 190.182 498.306 201.474C485.819 212.767 467.413 223.212 444.159 232.107C397.691 249.88 333.091 261 261.438 261C189.784 261 125.185 249.88 78.7169 232.107C55.4627 223.212 37.0568 212.767 24.5695 201.474C12.0821 190.182 6 178.522 6 167C6 155.478 12.0821 143.818 24.5695 132.526C37.0568 121.233 55.4627 110.788 78.7169 101.893C125.185 84.1195 189.784 73 261.438 73C333.091 73 397.691 84.1195 444.159 101.893C467.413 110.788 485.819 121.233 498.306 132.526C510.794 143.818 516.876 155.478 516.876 167Z" stroke="#32A4A0" stroke-width="12"/>
<path d="M516.876 155C516.876 166.522 510.794 178.182 498.306 189.474C485.819 200.767 467.413 211.212 444.159 220.107C397.691 237.88 333.091 249 261.438 249C189.784 249 125.185 237.88 78.7169 220.107C55.4627 211.212 37.0568 200.767 24.5695 189.474C12.0821 178.182 6 166.522 6 155C6 143.478 12.0821 131.818 24.5695 120.526C37.0568 109.233 55.4627 98.7881 78.7169 89.8934C125.185 72.1195 189.784 61 261.438 61C333.091 61 397.691 72.1195 444.159 89.8934C467.413 98.7881 485.819 109.233 498.306 120.526C510.794 131.818 516.876 143.478 516.876 155Z" stroke="#77DCCC" stroke-width="12"/>
<path d="M187.569 239.071C178.136 237.986 168.945 236.7 160.029 235.228C62.2982 167.775 5.4464 88.5566 29.5046 46.8866C57.1188 -0.942625 180.873 18.809 305.916 91.003C369.308 127.602 420.862 170.653 452.69 210.44C449.318 211.898 445.811 213.324 442.173 214.716C441.801 214.858 441.428 215 441.054 215.141C410.196 177.548 360.841 136.57 299.916 101.395C238.331 65.8389 177.52 43.485 129.283 35.7861C105.121 31.9298 84.7621 31.856 69.2797 35.1819C53.7972 38.5079 44.5154 44.8871 39.8969 52.8866C35.2783 60.8862 34.3947 72.114 39.2556 87.1853C44.1164 102.256 54.3598 119.851 69.7805 138.848C96.3983 171.638 137.203 207.09 187.569 239.071Z" fill="#32A4A0"/>
<path d="M214.748 241.583C205.487 240.93 196.409 240.088 187.545 239.068C76.8176 168.871 9.73086 81.1357 35.5046 36.4943C63.1188 -11.335 186.873 8.41663 311.916 80.6107C378.297 118.935 431.697 164.335 463.06 205.652C459.513 207.403 455.784 209.118 451.877 210.79C450.639 209.194 449.365 207.588 448.052 205.971C417.266 168.046 367.502 126.559 305.916 91.003C244.331 55.4466 183.521 33.0926 135.283 25.3938C111.121 21.5374 90.7621 21.4636 75.2797 24.7896C59.7972 28.1155 50.5154 34.4948 45.8969 42.4943C41.2783 50.4938 40.3947 61.7217 45.2556 76.793C50.1164 91.8641 60.3598 109.459 75.7805 128.455C106.037 165.728 154.624 206.441 214.748 241.583Z" fill="#32A4A0"/>
<path d="M241.652 242.922C232.533 242.654 223.557 242.204 214.748 241.583C91.5419 169.584 14.1243 73.526 41.5046 26.102C69.1188 -21.7273 192.873 -1.9757 317.916 70.2184C387.084 110.152 442.158 157.767 472.893 200.442C469.524 202.362 465.947 204.247 462.166 206.091C459.644 202.641 456.939 199.135 454.052 195.579C423.266 157.654 373.502 116.167 311.916 80.6107C250.331 45.0543 189.521 22.7003 141.283 15.0014C117.121 11.1451 96.7621 11.0713 81.2797 14.3972C65.7972 17.7232 56.5154 24.1024 51.8969 32.102C47.2783 40.1015 46.3947 51.3294 51.2556 66.4007C56.1164 81.4718 66.3598 99.0663 81.7805 118.063C112.567 155.988 162.331 197.475 223.916 233.031C229.839 236.45 235.754 239.748 241.652 242.922Z" fill="#77DCCC"/>
<path d="M471.828 302.218C467.21 310.217 457.928 316.597 442.446 319.923C426.963 323.248 406.604 323.175 382.442 319.318C346.952 313.654 304.657 300.057 260.254 279.105C250.706 279.089 241.28 278.876 232 278.477C347.697 338.728 456.538 352.701 482.221 308.218C492.462 290.479 488.041 265.936 472.046 238.393C468.586 240.188 464.972 241.937 461.213 243.638C466.286 252.266 470.047 260.406 472.47 267.919C477.331 282.99 476.447 294.218 471.828 302.218Z" fill="#32A4A0"/>
<path d="M448.446 309.53C463.928 306.204 473.21 299.825 477.829 291.825C482.447 283.826 483.331 272.598 478.47 257.527C476.609 251.757 473.959 245.617 470.532 239.17C474.212 237.3 477.723 235.378 481.059 233.409C494.561 258.751 497.787 281.256 488.221 297.825C464.186 339.455 367.318 329.888 260.16 279.105C260.603 279.106 261.045 279.106 261.488 279.106C270.537 279.106 279.479 278.93 288.292 278.587C324.588 293.983 358.877 304.207 388.443 308.926C412.605 312.782 432.964 312.856 448.446 309.53Z" fill="#32A4A0"/>
<path d="M454.446 299.138C469.928 295.812 479.21 289.433 483.828 281.433C488.447 273.434 489.331 262.206 484.47 247.134C483.157 243.066 481.453 238.813 479.36 234.399C482.975 232.319 486.391 230.185 489.599 228C500.931 251.306 503.155 271.959 494.221 287.433C471.837 326.202 386.288 320.569 288.086 278.595C297.585 278.228 306.933 277.667 316.104 276.921C344.301 287.511 370.872 294.772 394.442 298.534C418.604 302.39 438.963 302.464 454.446 299.138Z" fill="#77DCCC"/>
</svg>
