<svg id="Layer_1" data-name="Layer 1" xmlns="http://www.w3.org/2000/svg" viewBox="0 0 16 16"><defs><style>.cls-1{isolation:isolate;}.cls-2{fill:#007fff;}.cls-3{fill:#fff;}</style></defs><title>favicon-16x16</title><g class="cls-1"><polygon class="cls-2" points="2.12 3.22 4 4.24 3.98 14.17 2.1 13.15 2.12 3.22"/><polygon class="cls-2" points="12.02 1.83 13.9 2.85 4 4.24 2.12 3.22 12.02 1.83"/><polygon class="cls-2" points="12.02 1.83 13.9 2.85 13.88 12.78 12.01 11.76 12.02 1.83"/><polygon class="cls-2" points="12.01 11.76 13.88 12.78 3.98 14.17 2.1 13.15 12.01 11.76"/><polygon class="cls-2" points="1.92 3.04 3.8 4.06 3.78 14.41 1.9 13.39 1.92 3.04"/><polygon class="cls-2" points="12.22 1.59 14.1 2.61 3.8 4.06 1.92 3.04 12.22 1.59"/><path class="cls-2" d="M14.1,2.61l0,10.35L3.78,14.41l0-10.35ZM4,14.17l9.91-1.39,0-9.93L4,4.24l0,9.93"/><polygon class="cls-3" points="4 4.24 13.9 2.85 13.88 12.78 3.98 14.17 4 4.24"/></g></svg>