<svg width="565" height="456" viewBox="0 0 565 456" fill="none" xmlns="http://www.w3.org/2000/svg">
<path d="M537.85 239.714C537.85 251.236 531.768 262.895 519.28 274.188C506.793 285.481 488.387 295.926 465.133 304.82C418.665 322.594 354.065 333.714 282.412 333.714C210.759 333.714 146.159 322.594 99.6911 304.82C76.4368 295.926 58.031 285.481 45.5436 274.188C33.0562 262.895 26.9741 251.236 26.9741 239.714C26.9741 228.192 33.0562 216.532 45.5436 205.239C58.031 193.947 76.4368 183.502 99.6911 174.607C146.159 156.833 210.759 145.714 282.412 145.714C354.065 145.714 418.665 156.833 465.133 174.607C488.387 183.502 506.793 193.947 519.28 205.239C531.768 216.532 537.85 228.192 537.85 239.714Z" stroke="#7CD4F2" stroke-width="12"/>
<path d="M537.85 227.714C537.85 239.236 531.768 250.895 519.28 262.188C506.793 273.481 488.387 283.926 465.133 292.82C418.665 310.594 354.065 321.714 282.412 321.714C210.759 321.714 146.159 310.594 99.6911 292.82C76.4368 283.926 58.031 273.481 45.5436 262.188C33.0562 250.895 26.9741 239.236 26.9741 227.714C26.9741 216.192 33.0562 204.532 45.5436 193.239C58.031 181.947 76.4368 171.502 99.6911 162.607C146.159 144.833 210.759 133.714 282.412 133.714C354.065 133.714 418.665 144.833 465.133 162.607C488.387 171.502 506.793 181.947 519.28 193.239C531.768 204.532 537.85 216.192 537.85 227.714Z" stroke="#7CD4F2" stroke-width="12"/>
<path d="M537.85 215.714C537.85 227.236 531.768 238.895 519.28 250.188C506.793 261.481 488.387 271.926 465.133 280.82C418.665 298.594 354.065 309.714 282.412 309.714C210.759 309.714 146.159 298.594 99.6911 280.82C76.4368 271.926 58.031 261.481 45.5436 250.188C33.0562 238.895 26.9741 227.236 26.9741 215.714C26.9741 204.192 33.0562 192.532 45.5436 181.239C58.031 169.947 76.4368 159.502 99.6911 150.607C146.159 132.833 210.759 121.714 282.412 121.714C354.065 121.714 418.665 132.833 465.133 150.607C488.387 159.502 506.793 169.947 519.28 181.239C531.768 192.532 537.85 204.192 537.85 215.714Z" stroke="#E2F1FF" stroke-width="12"/>
<path d="M503.628 355.433C497.867 365.411 486.769 372.468 470.309 376.004C453.848 379.54 432.686 379.382 408.1 375.458C358.97 367.617 297.466 344.947 235.412 309.12C173.358 273.293 122.973 231.364 91.6175 192.737C75.9261 173.407 65.2087 155.159 60.0406 139.135C54.8726 123.112 55.4351 109.973 61.1962 99.9948C66.9572 90.0164 78.0542 82.96 94.515 79.4239C110.976 75.8879 132.138 76.0453 156.724 79.9693C205.853 87.8105 267.358 110.481 329.412 146.307C391.466 182.134 441.851 224.064 473.206 262.69C488.898 282.021 499.615 300.269 504.783 316.292C509.951 332.316 509.389 345.454 503.628 355.433Z" stroke="#7CD4F2" stroke-width="12"/>
<path d="M497.628 365.825C491.867 375.803 480.769 382.86 464.309 386.396C447.848 389.932 426.686 389.775 402.1 385.851C352.97 378.009 291.466 355.339 229.412 319.512C167.358 283.686 116.973 241.756 85.6175 203.13C69.9261 183.799 59.2087 165.551 54.0406 149.528C48.8726 133.504 49.4351 120.366 55.1962 110.387C60.9572 100.409 72.0542 93.3524 88.515 89.8162C104.976 86.2802 126.138 86.4376 150.724 90.3616C199.853 98.2028 261.358 120.873 323.412 156.7C385.466 192.526 435.851 234.456 467.206 273.083C482.898 292.413 493.615 310.661 498.783 326.685C503.951 342.708 503.389 355.847 497.628 365.825Z" stroke="#7CD4F2" stroke-width="12"/>
<path d="M509.628 345.04C503.867 355.019 492.769 362.075 476.309 365.611C459.848 369.147 438.686 368.99 414.1 365.066C364.97 357.225 303.466 334.555 241.412 298.728C179.358 262.901 128.973 220.971 97.6175 182.345C81.9261 163.015 71.2087 144.766 66.0406 128.743C60.8726 112.719 61.4351 99.581 67.1962 89.6025C72.9572 79.6241 84.0542 72.5677 100.515 69.0316C116.976 65.4955 138.138 65.653 162.724 69.577C211.853 77.4182 273.358 100.088 335.412 135.915C397.466 171.742 447.851 213.672 479.206 252.298C494.898 271.628 505.615 289.877 510.783 305.9C515.951 321.924 515.389 335.062 509.628 345.04Z" stroke="#E2F1FF" stroke-width="12"/>
<path fill-rule="evenodd" clip-rule="evenodd" d="M24.4155 244.714C45.5176 291.845 152.853 327.714 282.091 327.714C411.329 327.714 518.664 291.845 539.766 244.714H526.185C523.536 248.953 519.836 253.306 514.935 257.738C503.19 268.359 485.521 278.475 462.668 287.216C417.044 304.668 353.204 315.714 282.091 315.714C210.978 315.714 147.138 304.668 101.514 287.216C78.6605 278.475 60.9922 268.359 49.247 257.738C44.3458 253.306 40.6456 248.953 37.9974 244.714H24.4155Z" fill="#7CD4F2"/>
<path fill-rule="evenodd" clip-rule="evenodd" d="M20.9741 244.714C27.785 297.619 142.086 339.714 282.091 339.714C422.096 339.714 536.397 297.619 543.208 244.714H531.06C529.592 252.571 524.597 261 514.935 269.738C503.19 280.359 485.521 290.475 462.668 299.216C417.044 316.668 353.204 327.714 282.091 327.714C210.978 327.714 147.138 316.668 101.513 299.216C78.6604 290.475 60.9921 280.359 49.2469 269.738C39.5849 261 34.5899 252.571 33.122 244.714H20.9741Z" fill="#7CD4F2"/>
<path fill-rule="evenodd" clip-rule="evenodd" d="M31.8154 244.714C64.3121 285.8 164.068 315.714 282.091 315.714C400.113 315.714 499.869 285.8 532.366 244.714H516.047C515.684 245.055 515.313 245.396 514.935 245.738C503.189 256.359 485.521 266.475 462.668 275.216C417.044 292.668 353.203 303.714 282.091 303.714C210.978 303.714 147.137 292.668 101.513 275.216C78.6601 266.475 60.9919 256.359 49.2467 245.738C48.8686 245.396 48.4978 245.055 48.1339 244.714H31.8154Z" fill="#E2F1FF"/>
</svg>
