<svg width="565" height="456" viewBox="0 0 565 456" fill="none" xmlns="http://www.w3.org/2000/svg">
<path d="M537.876 240C537.876 251.522 531.794 263.182 519.306 274.474C506.819 285.767 488.413 296.212 465.159 305.107C418.691 322.88 354.091 334 282.438 334C210.784 334 146.185 322.88 99.7169 305.107C76.4627 296.212 58.0568 285.767 45.5695 274.474C33.0821 263.182 27 251.522 27 240C27 228.478 33.0821 216.818 45.5695 205.526C58.0568 194.233 76.4627 183.788 99.7169 174.893C146.185 157.119 210.784 146 282.438 146C354.091 146 418.691 157.119 465.159 174.893C488.413 183.788 506.819 194.233 519.306 205.526C531.794 216.818 537.876 228.478 537.876 240Z" stroke="#7CD4F2" stroke-width="12"/>
<path d="M537.876 228C537.876 239.522 531.794 251.182 519.306 262.474C506.819 273.767 488.413 284.212 465.159 293.107C418.691 310.88 354.091 322 282.438 322C210.784 322 146.185 310.88 99.7169 293.107C76.4627 284.212 58.0568 273.767 45.5695 262.474C33.0821 251.182 27 239.522 27 228C27 216.478 33.0821 204.818 45.5695 193.526C58.0568 182.233 76.4627 171.788 99.7169 162.893C146.185 145.119 210.784 134 282.438 134C354.091 134 418.691 145.119 465.159 162.893C488.413 171.788 506.819 182.233 519.306 193.526C531.794 204.818 537.876 216.478 537.876 228Z" stroke="#7CD4F2" stroke-width="12"/>
<path d="M537.876 216C537.876 227.522 531.794 239.182 519.306 250.474C506.819 261.767 488.413 272.212 465.159 281.107C418.691 298.88 354.091 310 282.438 310C210.784 310 146.185 298.88 99.7169 281.107C76.4627 272.212 58.0568 261.767 45.5695 250.474C33.0821 239.182 27 227.522 27 216C27 204.478 33.0821 192.818 45.5695 181.526C58.0568 170.233 76.4627 159.788 99.7169 150.893C146.185 133.119 210.784 122 282.438 122C354.091 122 418.691 133.119 465.159 150.893C488.413 159.788 506.819 170.233 519.306 181.526C531.794 192.818 537.876 204.478 537.876 216Z" stroke="#E2F1FF" stroke-width="12"/>
<path d="M503.653 355.719C497.892 365.697 486.795 372.754 470.335 376.29C453.874 379.826 432.712 379.669 408.125 375.745C358.996 367.903 297.491 345.233 235.438 309.406C173.384 273.58 122.999 231.65 91.6434 193.024C75.952 173.693 65.2345 155.445 60.0665 139.422C54.8985 123.398 55.461 110.26 61.222 100.281C66.9831 90.3027 78.0801 83.2463 94.5409 79.7102C111.002 76.1741 132.164 76.3315 156.75 80.2556C205.879 88.0967 267.384 110.767 329.438 146.594C391.491 182.42 441.877 224.35 473.232 262.977C488.923 282.307 499.641 300.555 504.809 316.579C509.977 332.602 509.414 345.741 503.653 355.719Z" stroke="#7CD4F2" stroke-width="12"/>
<path d="M497.653 366.111C491.892 376.09 480.795 383.146 464.335 386.682C447.874 390.218 426.712 390.061 402.125 386.137C352.996 378.296 291.491 355.625 229.438 319.799C167.384 283.972 116.999 242.042 85.6434 203.416C69.952 184.086 59.2345 165.837 54.0665 149.814C48.8985 133.79 49.461 120.652 55.222 110.673C60.9831 100.695 72.0801 93.6386 88.5409 90.1025C105.002 86.5664 126.164 86.7238 150.75 90.6479C199.879 98.489 261.384 121.159 323.438 156.986C385.491 192.813 435.877 234.742 467.232 273.369C482.923 292.699 493.641 310.947 498.809 326.971C503.977 342.994 503.414 356.133 497.653 366.111Z" stroke="#7CD4F2" stroke-width="12"/>
<path d="M509.653 345.327C503.892 355.305 492.795 362.361 476.335 365.898C459.874 369.434 438.712 369.276 414.125 365.352C364.996 357.511 303.491 334.841 241.438 299.014C179.384 263.187 128.999 221.258 97.6434 182.631C81.952 163.301 71.2345 145.053 66.0665 129.029C60.8985 113.006 61.461 99.8672 67.222 89.8888C72.9831 79.9104 84.0801 72.854 100.541 69.3179C117.002 65.7818 138.164 65.9392 162.75 69.8633C211.879 77.7044 273.384 100.375 335.438 136.201C397.491 172.028 447.877 213.958 479.232 252.584C494.923 271.914 505.641 290.163 510.809 306.186C515.977 322.21 515.414 335.348 509.653 345.327Z" stroke="#E2F1FF" stroke-width="12"/>
<path fill-rule="evenodd" clip-rule="evenodd" d="M24.4414 245C45.5435 292.131 152.879 328 282.117 328C411.355 328 518.69 292.131 539.792 245H526.21C523.562 249.239 519.862 253.592 514.961 258.024C503.216 268.646 485.547 278.761 462.694 287.503C417.07 304.954 353.23 316 282.117 316C211.004 316 147.164 304.954 101.539 287.503C78.6863 278.761 61.0181 268.646 49.2729 258.024C44.3717 253.592 40.6715 249.239 38.0233 245H24.4414Z" fill="#7CD4F2"/>
<path fill-rule="evenodd" clip-rule="evenodd" d="M21 245C27.8109 297.906 142.112 340 282.117 340C422.122 340 536.423 297.906 543.234 245H531.086C529.618 252.857 524.623 261.286 514.961 270.024C503.216 280.646 485.547 290.761 462.694 299.503C417.07 316.954 353.23 328 282.117 328C211.004 328 147.164 316.954 101.539 299.503C78.6863 290.761 61.018 280.646 49.2728 270.024C39.6107 261.286 34.6158 252.857 33.1479 245H21Z" fill="#7CD4F2"/>
<path fill-rule="evenodd" clip-rule="evenodd" d="M31.8413 245C64.338 286.087 164.094 316 282.117 316C400.139 316 499.895 286.087 532.392 245H516.073C515.709 245.341 515.339 245.682 514.96 246.024C503.215 256.646 485.547 266.761 462.694 275.503C417.07 292.954 353.229 304 282.117 304C211.004 304 147.163 292.954 101.539 275.503C78.686 266.761 61.0177 256.646 49.2726 246.024C48.8945 245.682 48.5236 245.341 48.1598 245H31.8413Z" fill="#E2F1FF"/>
</svg>

